<svg id="Capa_1" enable-background="new 0 0 511.975 511.975" height="512" viewBox="0 0 511.975 511.975" width="512" xmlns="http://www.w3.org/2000/svg"><g><path d="m233.086 149.308c-4.143 0-7.5 3.358-7.5 7.5v10.094c0 4.142 3.357 7.5 7.5 7.5s7.5-3.358 7.5-7.5v-10.094c0-4.143-3.357-7.5-7.5-7.5z"/><path d="m256.078 174.401c4.143 0 7.5-3.358 7.5-7.5v-10.094c0-4.142-3.357-7.5-7.5-7.5s-7.5 3.358-7.5 7.5v10.094c0 4.142 3.357 7.5 7.5 7.5z"/><path d="m279.069 174.401c4.143 0 7.5-3.358 7.5-7.5v-10.094c0-4.142-3.357-7.5-7.5-7.5s-7.5 3.358-7.5 7.5v10.094c0 4.142 3.357 7.5 7.5 7.5z"/><path d="m185.213 169.354h17.119c4.143 0 7.5-3.358 7.5-7.5s-3.357-7.5-7.5-7.5h-17.119c-4.143 0-7.5 3.358-7.5 7.5s3.358 7.5 7.5 7.5z"/><path d="m309.823 169.354h17.119c4.143 0 7.5-3.358 7.5-7.5s-3.357-7.5-7.5-7.5h-17.119c-4.143 0-7.5 3.358-7.5 7.5s3.357 7.5 7.5 7.5z"/><path d="m284.24 216.88h-10.05c-4.143 0-7.5 3.358-7.5 7.5 0 3.077 1.855 5.719 4.507 6.875-.952 1.685-2.758 2.827-4.828 2.827-3.057 0-5.544-2.487-5.544-5.544v-16.176c0-3.058 2.487-5.545 5.544-5.545 1.604 0 3.076.661 4.145 1.86 2.753 3.093 7.494 3.37 10.589.615 3.094-2.754 3.369-7.495.614-10.588-3.896-4.376-9.49-6.887-15.348-6.887-11.328 0-20.544 9.216-20.544 20.545v16.176c0 11.328 9.216 20.544 20.544 20.544 10.332 0 18.883-7.674 20.312-17.616 2.942-1.013 5.06-3.799 5.06-7.086-.001-4.142-3.359-7.5-7.501-7.5z"/><path d="m229.894 191.817c-4.143 0-7.5 3.358-7.5 7.5v42.265c0 4.142 3.357 7.5 7.5 7.5s7.5-3.358 7.5-7.5v-42.265c0-4.142-3.357-7.5-7.5-7.5z"/><path d="m206.286 191.817c-4.143 0-7.5 3.358-7.5 7.5v13.633h-11.089v-13.633c0-4.142-3.357-7.5-7.5-7.5s-7.5 3.358-7.5 7.5v42.265c0 4.142 3.357 7.5 7.5 7.5s7.5-3.358 7.5-7.5v-13.632h11.089v13.632c0 4.142 3.357 7.5 7.5 7.5s7.5-3.358 7.5-7.5v-42.265c0-4.142-3.358-7.5-7.5-7.5z"/><path d="m331.779 191.817c-4.143 0-7.5 3.358-7.5 7.5v13.633h-11.09v-13.633c0-4.142-3.357-7.5-7.5-7.5s-7.5 3.358-7.5 7.5v42.265c0 4.142 3.357 7.5 7.5 7.5s7.5-3.358 7.5-7.5v-13.632h11.09v13.632c0 4.142 3.357 7.5 7.5 7.5s7.5-3.358 7.5-7.5v-42.265c0-4.142-3.358-7.5-7.5-7.5z"/><path d="m443.232 261.318c.05-1.779.08-3.56.08-5.331 0-57.573-26.127-109.152-67.14-143.525v-92.737c0-6.423-3.14-12.461-8.398-16.15-5.258-3.688-12.003-4.586-18.044-2.399l-93.652 33.901-93.653-33.901c-6.043-2.187-12.787-1.289-18.044 2.399-5.259 3.689-8.398 9.727-8.398 16.15v23.177c0 4.142 3.357 7.5 7.5 7.5s7.5-3.358 7.5-7.5v-23.177c0-2.219 1.407-3.445 2.013-3.87.605-.424 2.24-1.329 4.324-.575l96.205 34.825c1.648.597 3.457.597 5.105 0l96.205-34.825c2.086-.755 3.719.15 4.324.575s2.013 1.651 2.013 3.87v81.383c-29.983-20.41-66.169-32.355-105.095-32.355s-75.112 11.945-105.095 32.355v-24.205c0-4.142-3.357-7.5-7.5-7.5s-7.5 3.358-7.5 7.5v35.559c-41.013 34.373-67.141 85.953-67.141 143.526 0 1.75.027 3.51.076 5.267-6.754 2.427-11.605 8.878-11.605 16.457v82.459c0 9.649 7.851 17.5 17.5 17.5h38.974c6.85 8.004 14.273 15.354 22.196 22.001v92.578c0 6.423 3.14 12.46 8.398 16.149 3.362 2.359 7.331 3.576 11.336 3.576 2.259 0 4.529-.388 6.708-1.176l93.652-33.901 93.652 33.901c6.039 2.186 12.785 1.289 18.044-2.4s8.398-9.726 8.398-16.149v-92.571c7.914-6.646 15.333-13.998 22.188-22.009h38.803c9.649 0 17.5-7.851 17.5-17.5v-82.459c.002-7.513-4.767-13.917-11.429-16.393zm-187.154-177.565c94.971 0 172.234 77.264 172.234 172.235 0 1.403-.021 2.814-.054 4.223h-17.783c.038-1.409.074-2.82.074-4.223 0-32.984-10.262-64.462-29.675-91.032-2.444-3.344-7.135-4.075-10.48-1.631s-4.074 7.136-1.631 10.48c17.523 23.983 26.786 52.401 26.786 82.183 0 1.404-.032 2.814-.074 4.223h-278.798c-.042-1.411-.07-2.823-.07-4.223 0-76.904 62.566-139.47 139.471-139.47 33.289 0 65.521 11.924 90.758 33.575 3.145 2.697 7.88 2.333 10.576-.809 2.697-3.144 2.335-7.878-.809-10.576-27.955-23.982-63.655-37.19-100.525-37.19-85.176 0-154.471 69.295-154.471 154.47 0 1.401.032 2.812.07 4.223h-17.779c-.034-1.409-.056-2.82-.056-4.223 0-94.971 77.265-172.235 172.236-172.235zm15.258 343.789c-4.127.362-7.178 4-6.816 8.127.343 3.903 3.617 6.845 7.463 6.845.22 0 .441-.01.664-.029 32.204-2.826 62.457-13.708 88.525-31.449v81.215c0 2.218-1.407 3.445-2.013 3.87-.604.425-2.236 1.331-4.324.575l-96.205-34.826c-1.648-.597-3.457-.597-5.105 0l-96.205 34.825c-2.086.757-3.719-.15-4.324-.575-.605-.424-2.013-1.651-2.013-3.87v-81.233c25.468 17.324 54.944 28.137 86.263 31.266.254.025.506.038.755.038 3.807 0 7.067-2.887 7.454-6.755.412-4.122-2.596-7.796-6.717-8.208-39.849-3.982-76.462-21.485-104.55-49.687h26.726c.004.003.008.007.012.01 27.388 21.443 60.291 32.777 95.151 32.777 34.406 0 68.125-11.637 95.151-32.788h26.738c-28.595 28.733-65.921 46.3-106.63 49.872zm-83.507-49.872h136.51c-20.699 11.687-43.927 17.788-68.261 17.788-24.299 0-47.539-6.103-68.249-17.788zm251.834-17.5c0 1.378-1.121 2.5-2.5 2.5h-362.35c-1.379 0-2.5-1.122-2.5-2.5v-82.459c0-1.378 1.121-2.5 2.5-2.5h362.35c1.379 0 2.5 1.122 2.5 2.5z"/><path d="m144.472 326.975v-16.176c0-11.329-9.217-20.545-20.545-20.545s-20.545 9.216-20.545 20.545v16.176c0 11.328 9.217 20.544 20.545 20.544 2.933 0 5.719-.628 8.246-1.741 1.387 1.158 3.093 1.741 4.799 1.741 1.919 0 3.839-.732 5.304-2.197 2.767-2.767 2.916-7.156.456-10.102 1.112-2.526 1.74-5.312 1.74-8.245zm-26.09 0v-16.176c0-3.058 2.487-5.545 5.545-5.545s5.545 2.487 5.545 5.545v12.578c-2.49-.647-5.245-.003-7.196 1.947-1.553 1.553-2.274 3.616-2.18 5.65-1.054-1.01-1.714-2.428-1.714-3.999z"/><path d="m184.878 290.254c-4.143 0-7.5 3.358-7.5 7.5v29.221c0 3.057-2.487 5.544-5.545 5.544-3.057 0-5.544-2.487-5.544-5.544v-29.221c0-4.142-3.357-7.5-7.5-7.5s-7.5 3.358-7.5 7.5v29.221c0 11.328 9.216 20.544 20.544 20.544s20.545-9.216 20.545-20.544v-29.221c0-4.142-3.357-7.5-7.5-7.5z"/><path d="m305.661 290.254c-4.143 0-7.5 3.358-7.5 7.5v42.265c0 4.142 3.357 7.5 7.5 7.5s7.5-3.358 7.5-7.5v-42.265c0-4.142-3.358-7.5-7.5-7.5z"/><path d="m221.532 290.469c-11.256 0-20.413 9.157-20.413 20.413v28.924c0 4.142 3.357 7.5 7.5 7.5s7.5-3.358 7.5-7.5v-8.068h10.825v8.068c0 4.142 3.357 7.5 7.5 7.5s7.5-3.358 7.5-7.5v-28.924c0-11.256-9.157-20.413-20.412-20.413zm-5.413 26.268v-5.856c0-2.984 2.429-5.413 5.413-5.413s5.412 2.428 5.412 5.413v5.856z"/><path d="m283.441 332.519h-18.108v-34.551c0-4.142-3.357-7.5-7.5-7.5s-7.5 3.358-7.5 7.5v42.051c0 4.142 3.357 7.5 7.5 7.5h25.608c4.143 0 7.5-3.358 7.5-7.5s-3.358-7.5-7.5-7.5z"/><path d="m405.581 291.853c-3.319-2.479-8.018-1.799-10.498 1.52l-7.036 9.418-7.036-9.418c-2.48-3.319-7.179-3.999-10.498-1.52-3.318 2.479-3.998 7.179-1.52 10.497l11.554 15.464v22.312c0 4.142 3.357 7.5 7.5 7.5s7.5-3.358 7.5-7.5v-22.312l11.554-15.464c2.479-3.318 1.799-8.018-1.52-10.497z"/><path d="m354.151 290.362h-26.09c-4.143 0-7.5 3.358-7.5 7.5s3.357 7.5 7.5 7.5h5.545v34.765c0 4.142 3.357 7.5 7.5 7.5s7.5-3.358 7.5-7.5v-34.765h5.545c4.143 0 7.5-3.358 7.5-7.5s-3.358-7.5-7.5-7.5z"/></g></svg>