<?xml version="1.0" encoding="iso-8859-1"?>
<!-- Generator: Adobe Illustrator 18.0.0, SVG Export Plug-In . SVG Version: 6.00 Build 0)  -->
<!DOCTYPE svg PUBLIC "-//W3C//DTD SVG 1.1//EN" "http://www.w3.org/Graphics/SVG/1.1/DTD/svg11.dtd">
<svg version="1.1" id="Capa_1" xmlns="http://www.w3.org/2000/svg" xmlns:xlink="http://www.w3.org/1999/xlink" x="0px" y="0px"
	 viewBox="0 0 512 512" style="enable-background:new 0 0 512 512;" xml:space="preserve">
<g>
	<path style="fill:#AF6328;" d="M104,32v480h304V32H104z M240,488H128V296h112V488z M240,248H128V56h112V248z M384,488H272V296h112
		V488z M384,248H272V56h112V248z"/>
	<polygon style="fill:#7F4122;" points="368,232 368,72 384,56 384,248 272,248 288,232 	"/>
	<g>
		<polygon style="fill:#A25425;" points="304,88 304,216 288,232 368,232 368,72 352,88 		"/>
		<polygon style="fill:#A25425;" points="288,72 368,72 384,56 272,56 272,248 288,232 		"/>
	</g>
	<g>
		<polygon style="fill:#A25425;" points="160,88 160,216 144,232 224,232 224,72 208,88 		"/>
		<polygon style="fill:#A25425;" points="144,72 224,72 240,56 128,56 128,248 144,232 		"/>
	</g>
	<polygon style="fill:#AF6328;" points="304,88 304,216 288,232 288,72 368,72 352,88 	"/>
	<polygon style="fill:#7F4122;" points="224,232 224,72 240,56 240,248 128,248 144,232 	"/>
	<polygon style="fill:#AF6328;" points="160,88 160,216 144,232 144,72 224,72 208,88 	"/>
	<g>
		<polygon style="fill:#A25425;" points="160,328 160,456 144,472 224,472 224,312 208,328 		"/>
		<polygon style="fill:#A25425;" points="144,312 224,312 240,296 128,296 128,488 144,472 		"/>
	</g>
	<polygon style="fill:#7F4122;" points="224,472 224,312 240,296 240,488 128,488 144,472 	"/>
	<polygon style="fill:#AF6328;" points="160,328 160,456 144,472 144,312 224,312 208,328 	"/>
	<g>
		<polygon style="fill:#A25425;" points="304,328 304,456 288,472 368,472 368,312 352,328 		"/>
		<polygon style="fill:#A25425;" points="288,312 368,312 384,296 272,296 272,488 288,472 		"/>
	</g>
	<polygon style="fill:#7F4122;" points="368,472 368,312 384,296 384,488 272,488 288,472 	"/>
	<polygon style="fill:#AF6328;" points="304,328 304,456 288,472 288,312 368,312 352,328 	"/>
	<path style="fill:#F6B74E;" d="M376,264h-48c-4.418,0-8,3.582-8,8s3.582,8,8,8h40c0,4.418,3.582,8,8,8s8-3.582,8-8v-8
		C384,267.582,380.418,264,376,264z"/>
	<path style="fill:#7F4122;" d="M368,280h-40l8,8h40C371.582,288,368,284.418,368,280z"/>
	<rect x="440" y="488" style="fill:#D0D7DA;" width="64" height="24"/>
	<rect x="8" y="488" style="fill:#D0D7DA;" width="64" height="24"/>
	<rect x="440" y="472" style="fill:#E2E4E6;" width="64" height="16"/>
	<rect x="8" y="472" style="fill:#E2E4E6;" width="64" height="16"/>
	<polygon style="fill:#A25425;" points="72,0 72,512 104,512 104,32 408,32 408,512 440,512 440,0 	"/>
</g>
<g>
</g>
<g>
</g>
<g>
</g>
<g>
</g>
<g>
</g>
<g>
</g>
<g>
</g>
<g>
</g>
<g>
</g>
<g>
</g>
<g>
</g>
<g>
</g>
<g>
</g>
<g>
</g>
<g>
</g>
</svg>
